HIERARCHY
ROOT hip
{
  OFFSET 138.939 70.6413 194.134
  CHANNELS 6 Xposition Yposition Zposition Zrotation Xrotation Yrotation
  JOINT abdomen
  {
    OFFSET 0 20.6881 -0.73152
    CHANNELS 3 Zrotation Xrotation Yrotation
    JOINT chest
    {
      OFFSET 0 11.7043 -0.48768
      CHANNELS 3 Zrotation Xrotation Yrotation
      JOINT neck
      {
        OFFSET 0 22.1894 -2.19456
        CHANNELS 3 Zrotation Xrotation Yrotation
        JOINT head
        {
          OFFSET -0.24384 7.07133 1.2192
          CHANNELS 3 Zrotation Xrotation Yrotation
          JOINT leftEye
          {
            OFFSET 4.14528 8.04674 8.04672
            CHANNELS 3 Zrotation Xrotation Yrotation
            End Site
            {
              OFFSET 1 0 0
            }
          }
          JOINT rightEye
          {
            OFFSET -3.6576 8.04674 8.04672
            CHANNELS 3 Zrotation Xrotation Yrotation
            End Site
            {
              OFFSET 1 0 0
            }
          }
        }
      }
      JOINT rCollar
      {
        OFFSET -2.68224 19.2634 -4.8768
        CHANNELS 3 Zrotation Xrotation Yrotation
        JOINT rShldr
        {
          OFFSET -8.77824 -1.95073 1.46304
          CHANNELS 3 Zrotation Xrotation Yrotation
          JOINT rForeArm
          {
            OFFSET -28.1742 -1.7115 0.48768
            CHANNELS 3 Zrotation Xrotation Yrotation
            JOINT rHand
            {
              OFFSET -22.5879 0.773209 7.07136
              CHANNELS 3 Zrotation Xrotation Yrotation
              JOINT rThumb1
              {
                OFFSET -1.2192 -0.487915 3.41376
                CHANNELS 3 Zrotation Xrotation Yrotation
                JOINT rThumb2
                {
                  OFFSET -3.37035 -0.52449 3.41376
                  CHANNELS 3 Zrotation Xrotation Yrotation
                  End Site
                  {
                    OFFSET -1.78271 -1.18214 1.43049
                  }
                }
              }
              JOINT rIndex1
              {
                OFFSET -7.75947 0.938293 5.60832
                CHANNELS 3 Zrotation Xrotation Yrotation
                JOINT rIndex2
                {
                  OFFSET -2.54057 -0.884171 1.56538
                  CHANNELS 3 Zrotation Xrotation Yrotation
                  End Site
                  {
                    OFFSET -1.62519 -0.234802 1.16502
                  }
                }
              }
              JOINT rMid1
              {
                OFFSET -8.24714 1.18213 3.41376
                CHANNELS 3 Zrotation Xrotation Yrotation
                JOINT rMid2
                {
                  OFFSET -3.10165 -0.590103 1.0647
                  CHANNELS 3 Zrotation Xrotation Yrotation
                  End Site
                  {
                    OFFSET -2.48547 -0.328903 0.83742
                  }
                }
              }
              JOINT rRing1
              {
                OFFSET -8.82822 0.546677 1.51678
                CHANNELS 3 Zrotation Xrotation Yrotation
                JOINT rRing2
                {
                  OFFSET -2.60934 -0.819778 -0.0198488
                  CHANNELS 3 Zrotation Xrotation Yrotation
                  End Site
                  {
                    OFFSET -2.33842 -0.294052 0.168128
                  }
                }
              }
              JOINT rPinky1
              {
                OFFSET -8.27202 -0.0477905 -0.4584
                CHANNELS 3 Zrotation Xrotation Yrotation
                JOINT rPinky2
                {
                  OFFSET -1.82734 -0.647385 -0.700984
                  CHANNELS 3 Zrotation Xrotation Yrotation
                  End Site
                  {
                    OFFSET -1.69225 -0.51767 -0.607171
                  }
                }
              }
            }
          }
        }
      }
      JOINT lCollar
      {
        OFFSET 2.68224 19.2634 -4.8768
        CHANNELS 3 Zrotation Xrotation Yrotation
        JOINT lShldr
        {
          OFFSET 8.77824 -1.95073 1.46304
          CHANNELS 3 Zrotation Xrotation Yrotation
          JOINT lForeArm
          {
            OFFSET 28.1742 -1.7115 0.48768
            CHANNELS 3 Zrotation Xrotation Yrotation
            JOINT lHand
            {
              OFFSET 22.5879 0.773209 7.07136
              CHANNELS 3 Zrotation Xrotation Yrotation
              JOINT lThumb1
              {
                OFFSET 1.2192 -0.487915 3.41376
                CHANNELS 3 Zrotation Xrotation Yrotation
                JOINT lThumb2
                {
                  OFFSET 3.37035 -0.52449 3.41376
                  CHANNELS 3 Zrotation Xrotation Yrotation
                  End Site
                  {
                    OFFSET 1.78271 -1.18214 1.43049
                  }
                }
              }
              JOINT lIndex1
              {
                OFFSET 7.75947 0.938293 5.60832
                CHANNELS 3 Zrotation Xrotation Yrotation
                JOINT lIndex2
                {
                  OFFSET 2.54057 -0.884171 1.56538
                  CHANNELS 3 Zrotation Xrotation Yrotation
                  End Site
                  {
                    OFFSET 1.62519 -0.234802 1.16502
                  }
                }
              }
              JOINT lMid1
              {
                OFFSET 8.24714 1.18213 3.41376
                CHANNELS 3 Zrotation Xrotation Yrotation
                JOINT lMid2
                {
                  OFFSET 3.10165 -0.590103 1.0647
                  CHANNELS 3 Zrotation Xrotation Yrotation
                  End Site
                  {
                    OFFSET 2.48547 -0.328903 0.83742
                  }
                }
              }
              JOINT lRing1
              {
                OFFSET 8.82822 0.546677 1.51678
                CHANNELS 3 Zrotation Xrotation Yrotation
                JOINT lRing2
                {
                  OFFSET 2.60934 -0.819778 -0.0198488
                  CHANNELS 3 Zrotation Xrotation Yrotation
                  End Site
                  {
                    OFFSET 2.33842 -0.294052 0.168128
                  }
                }
              }
              JOINT lPinky1
              {
                OFFSET 8.27202 -0.0477905 -0.4584
                CHANNELS 3 Zrotation Xrotation Yrotation
                JOINT lPinky2
                {
                  OFFSET 1.82734 -0.647385 -0.700984
                  CHANNELS 3 Zrotation Xrotation Yrotation
                  End Site
                  {
                    OFFSET 1.69225 -0.51767 -0.607171
                  }
                }
              }
            }
          }
        }
      }
    }
  }
  JOINT rButtock
  {
    OFFSET -8.77824 4.35084 1.2192
    CHANNELS 3 Zrotation Xrotation Yrotation
    JOINT rThigh
    {
      OFFSET 0 -1.70687 -2.19456
      CHANNELS 3 Zrotation Xrotation Yrotation
      JOINT rShin
      {
        OFFSET 0 -36.8199 0.73152
        CHANNELS 3 Zrotation Xrotation Yrotation
        JOINT rFoot
        {
          OFFSET 0.73152 -45.1104 -5.12064
          CHANNELS 3 Zrotation Xrotation Yrotation
          End Site
          {
            OFFSET -1.1221 -3.69964 12.103
          }
        }
      }
    }
  }
  JOINT lButtock
  {
    OFFSET 8.77824 4.35084 1.2192
    CHANNELS 3 Zrotation Xrotation Yrotation
    JOINT lThigh
    {
      OFFSET 0 -1.70687 -2.19456
      CHANNELS 3 Zrotation Xrotation Yrotation
      JOINT lShin
      {
        OFFSET 0 -36.8199 0.73152
        CHANNELS 3 Zrotation Xrotation Yrotation
        JOINT lFoot
        {
          OFFSET -0.73152 -45.1104 -5.12064
          CHANNELS 3 Zrotation Xrotation Yrotation
          End Site
          {
            OFFSET 1.1221 -3.69964 12.103
          }
        }
      }
    }
  }
}
MOTION
Frames:	6
Frame Time:	0.00833333
-60.2682 79.0341 -232.033 -1.1975 0.00337766 0.0224841 1.57508 -0.00270757 0.0428972 0.434176 0.00151703 0.0751891 -5.20942e-014 0 -3.97569e-016 -1.55875e-013 3.18055e-015 -1.14301e-015 -0 0 0 -0 0 0 -2.59434e-014 3.33896e-017 -4.96962e-017 -5.44082e-013 9.13167e-016 -5.76476e-015 -9.40684e-012 2.83765e-012 -3.18055e-015 -1.07553e-010 -2.67912e-012 -1.0464e-012 -2.5372e-010 3.39532e-013 -2.23911e-012 -4.38172e-010 5.82042e-013 -3.86437e-012 -2.53714e-010 3.42307e-013 -2.25183e-012 7.73091 5.47488 0.417314 -2.5372e-010 3.39922e-013 -2.24229e-012 2.90554 0.965183 0.102902 -2.53713e-010 3.39524e-013 -2.23832e-012 10.2786 0.731801 0.0259123 -2.53722e-010 3.41114e-013 -2.22639e-012 2.22167 -0.733487 -0.20892 -2.61399e-014 3.35837e-017 -4.47265e-016 -5.46782e-013 6.02566e-016 -7.35503e-015 -9.39019e-012 -2.79332e-012 -3.18055e-015 -1.07563e-010 2.94552e-012 -1.04322e-012 -2.53699e-010 3.29503e-013 -2.23911e-012 -4.38113e-010 5.69319e-013 -3.85801e-012 -2.53705e-010 3.29585e-013 -2.23275e-012 -7.73091 5.47488 -0.417314 -2.53699e-010 3.29088e-013 -2.24229e-012 -2.90554 0.965183 -0.102902 -2.53704e-010 3.29883e-013 -2.23832e-012 -10.2786 0.731801 -0.0259123 -2.53696e-010 3.29585e-013 -2.25183e-012 -2.22167 -0.733487 0.20892 -2.03217e-016 0 -3.88251e-019 1.70403 -6.6041 -0.159289 0.00259244 6.39982 0.0734132 -0.527163 0.199678 0.0639893 2.03217e-016 0 3.88251e-019 0.691434 -1.9236 0.00559147 0.00918178 -2.07857 0.0757836 0.503587 3.99746 -0.139048 
-62.6414 75.7441 -238.733 -2.14808 6.86576 -1.12855 0.444372 5.05894 0.775326 0.692698 -2.58898 0.2266 0.0767962 -0.653515 -0.143902 1.03614 -9.27641 -0.0158983 -0 0 0 -0 0 0 -6.02532e-014 -2.20981e-015 -3.01706e-014 22.9915 10.2096 -1.00989 -14.0695 -11.1943 14.3182 0.0220264 -3.32932 -0.465178 1.20198e-010 -1.44812e-010 -1.18909e-010 2.08646e-010 -2.52579e-010 -2.02598e-010 1.20204e-010 -1.44808e-010 -1.18924e-010 7.73091 5.47488 0.417314 1.20197e-010 -1.44811e-010 -1.18911e-010 2.90554 0.965183 0.102902 1.20203e-010 -1.44811e-010 -1.18907e-010 10.2786 0.731801 0.0259123 1.20195e-010 -1.44809e-010 -1.18896e-010 2.22167 -0.733487 -0.20892 -6.03913e-014 -2.21412e-015 -3.04707e-014 -22.0673 12.1632 2.82942 13.5767 -10.6538 -14.0919 -0.061636 -5.57186 0.770199 9.52505e-011 9.638e-011 -6.27394e-012 1.63574e-010 1.67106e-010 -5.87154e-012 9.52424e-011 9.63809e-011 -6.26264e-012 -7.73091 5.47488 -0.417314 9.52481e-011 9.63798e-011 -6.27633e-012 -2.90554 0.965183 -0.102902 9.52446e-011 9.63814e-011 -6.27366e-012 -10.2786 0.731801 -0.0259123 9.5253e-011 9.63816e-011 -6.285e-012 -2.22167 -0.733487 0.20892 -2.03217e-016 0 -3.88251e-019 0.301825 -10.8694 -2.51373 -0.0125273 23.1674 0.311392 -0.725673 5.16306 -2.24572 2.03217e-016 0 3.88251e-019 -1.01953 -19.5326 1.03751 0.0919189 17.556 -0.155129 0.195592 -1.671 -1.54295 
-62.4527 75.5936 -236.243 -2.88472 14.1108 -2.42887 -0.856955 10.4029 1.60307 0.965402 -5.31446 0.396675 0.169483 -1.33374 -0.29071 2.09424 -19.0938 -0.0369912 -0 0 0 -0 0 0 -9.85493e-014 -2.76357e-015 -6.25644e-014 47.68 21.1366 -2.08382 -22.8874 -20.812 31.2068 -0.0139726 -6.79128 -0.954288 5.32313e-010 -2.92202e-010 -2.29008e-010 9.21262e-010 -5.09746e-010 -3.89714e-010 5.3232e-010 -2.92195e-010 -2.29025e-010 7.73091 5.47488 0.417314 5.32312e-010 -2.922e-010 -2.2901e-010 2.90554 0.965183 0.102902 5.32317e-010 -2.92199e-010 -2.29004e-010 10.2786 0.731801 0.0259123 5.32311e-010 -2.92197e-010 -2.28996e-010 2.22167 -0.733487 -0.20892 -9.86267e-014 -2.77295e-015 -6.276e-014 -46.8344 24.9382 6.43619 22.172 -19.7144 -30.4292 0.0406363 -11.5535 1.62257 4.79319e-010 1.83816e-010 -5.19297e-011 8.26241e-010 3.19397e-010 -7.92066e-011 4.79309e-010 1.83818e-010 -5.19128e-011 -7.73091 5.47488 -0.417314 4.79314e-010 1.83816e-010 -5.19313e-011 -2.90554 0.965183 -0.102902 4.79312e-010 1.83818e-010 -5.193e-011 -10.2786 0.731801 -0.0259123 4.79321e-010 1.83819e-010 -5.19391e-011 -2.22167 -0.733487 0.20892 -2.03217e-016 0 -3.88251e-019 -1.50809 -15.101 -5.01184 -0.223507 40.6861 0.672531 -0.481897 10.5028 -4.72646 2.03217e-016 0 3.88251e-019 -1.91144 -38.2401 2.60161 0.390548 38.3166 -0.489648 -0.417566 -7.58994 -3.00246 
-62.1518 75.4625 -233.799 -3.17501 20.5564 -3.63828 -2.21724 15.1718 2.31174 1.25118 -7.76971 0.533627 0.220536 -1.9605 -0.431932 3.09126 -27.8292 -0.0532273 -0 0 0 -0 0 0 -1.28873e-013 -6.69619e-015 -9.04125e-014 70.2019 30.5875 -3.4642 -25.8645 -24.9307 47.698 -0.0982092 -9.98531 -1.41461 8.68033e-010 -4.35116e-010 -3.52249e-010 1.50228e-009 -7.58901e-010 -6.00066e-010 8.68039e-010 -4.35107e-010 -3.52268e-010 7.73091 5.47488 0.417314 8.68031e-010 -4.35113e-010 -3.52249e-010 2.90554 0.965183 0.102902 8.68034e-010 -4.35112e-010 -3.52243e-010 10.2786 0.731801 0.0259123 8.6803e-010 -4.35109e-010 -3.52236e-010 2.22167 -0.733487 -0.20892 -1.28894e-013 -6.70954e-015 -9.05177e-014 -70.5146 36.0898 10.2874 25.4616 -24.0124 -46.5403 0.281199 -16.7032 2.40104 7.9315e-010 2.88481e-010 -1.43436e-011 1.36695e-009 5.00179e-010 -9.89857e-012 7.93138e-010 2.88483e-010 -1.43224e-011 -7.73091 5.47488 -0.417314 7.93142e-010 2.88481e-010 -1.43444e-011 -2.90554 0.965183 -0.102902 7.93142e-010 2.88484e-010 -1.43444e-011 -10.2786 0.731801 -0.0259123 7.93151e-010 2.88486e-010 -1.43513e-011 -2.22167 -0.733487 0.20892 -2.03217e-016 0 -3.88251e-019 -3.60917 -19.2762 -7.51274 -0.776926 56.6967 1.29851 0.11045 14.9917 -7.07993 2.03217e-016 0 3.88251e-019 -1.3545 -54.6541 5.05564 1.03282 56.8205 -1.0876 -1.26987 -12.9716 -4.46359 
-61.8942 75.2992 -231.25 -3.0171 25.0398 -4.41179 -3.40856 18.5149 2.64764 1.53664 -9.54968 0.583459 0.173568 -2.45358 -0.559012 3.95349 -33.8597 -0.0497461 -0 0 0 -0 0 0 -1.39265e-013 -1.9076e-014 -1.06896e-013 86.5606 36.3663 -5.2693 -26.3774 -24.4441 58.3914 -0.19593 -12.5117 -1.78719 1.01276e-009 -5.6684e-010 -5.08342e-010 1.7543e-009 -9.88027e-010 -8.68508e-010 1.01277e-009 -5.66831e-010 -5.08361e-010 7.73091 5.47488 0.417314 1.01276e-009 -5.66837e-010 -5.08342e-010 2.90554 0.965183 0.102902 1.01276e-009 -5.66836e-010 -5.08335e-010 10.2786 0.731801 0.0259123 1.01276e-009 -5.66833e-010 -5.08329e-010 2.22167 -0.733487 -0.20892 -1.39242e-013 -1.90905e-014 -1.06946e-013 -87.8031 43.6555 12.8369 26.2781 -24.1701 -57.951 0.505547 -19.7863 2.8981 9.31386e-010 4.36219e-010 2.31347e-010 1.60275e-009 7.52188e-010 4.16017e-010 9.31373e-010 4.36222e-010 2.31369e-010 -7.73091 5.47488 -0.417314 9.31377e-010 4.3622e-010 2.31347e-010 -2.90554 0.965183 -0.102902 9.31378e-010 4.36223e-010 2.31346e-010 -10.2786 0.731801 -0.0259123 9.31387e-010 4.36224e-010 2.31341e-010 -2.22167 -0.733487 0.20892 -2.03217e-016 0 -3.88251e-019 -5.83428 -23.3874 -9.86066 -1.87153 68.9392 2.40512 0.654344 17.4491 -8.89116 2.03217e-016 0 3.88251e-019 0.374544 -65.43 8.04455 2.14991 69.6851 -2.14058 -2.18478 -17.0381 -5.82816 
-61.7747 75.2489 -228.773 -2.54558 26.7909 -4.38683 -4.25367 19.9035 2.38953 1.81016 -10.4021 0.501675 -0.0248604 -2.75422 -0.676181 4.70397 -36.0978 -0.0083225 -0 0 0 -0 0 0 -1.18399e-013 -4.21638e-014 -1.06491e-013 93.6775 36.9162 -7.17566 -26.2792 -23.0391 60.4886 -0.268464 -14.2365 -2.04536 8.42458e-010 -6.68003e-010 -7.08758e-010 1.46348e-009 -1.16359e-009 -1.21591e-009 8.42464e-010 -6.67996e-010 -7.08774e-010 7.73091 5.47488 0.417314 8.42456e-010 -6.68e-010 -7.08757e-010 2.90554 0.965183 0.102902 8.42459e-010 -6.67999e-010 -7.08751e-010 10.2786 0.731801 0.0259123 8.42454e-010 -6.67997e-010 -7.08745e-010 2.22167 -0.733487 -0.20892 -1.18341e-013 -4.21752e-014 -1.06537e-013 -93.6191 46.4894 11.6287 26.4381 -23.3927 -62.1047 0.526349 -19.7469 2.89636 7.8651e-010 4.08245e-010 6.93529e-010 1.34866e-009 7.01322e-010 1.21113e-009 7.86498e-010 4.08247e-010 6.93546e-010 -7.73091 5.47488 -0.417314 7.86502e-010 4.08245e-010 6.9353e-010 -2.90554 0.965183 -0.102902 7.86502e-010 4.08247e-010 6.93528e-010 -10.2786 0.731801 -0.0259123 7.86511e-010 4.08248e-010 6.93523e-010 -2.22167 -0.733487 0.20892 -2.03217e-016 0 -3.88251e-019 -8.09619 -27.4256 -12.0036 -3.40764 76.0593 3.91979 0.686891 17.072 -9.83318 2.03217e-016 0 3.88251e-019 -0.00604249 -68.498 8.29893 3.07853 74.7075 -3.04503 -2.94464 -19.3294 -6.97771 
